# xmcd
#
# Track frame offsets:
#	150
#	15611
#	32022
#	48934
#	65554
#	79732
#	96905
#	113608
#	130203
#	144746
#	160388
#	176089
#	192117
#
# Disc length: 2778 seconds
#
# Revision: 1
# Processed by: cddbd v1.5.1PL2 Copyright (c) Steve Scherf et al.
# Submitted via: audiograbber 1.83.01
#
DISCID=ad0ad80d
DTITLE=PERO TROCADERO - Zig od ljubavi
DYEAR=2004
DGENRE=Pop
TTITLE0=Zig od ljubavi
TTITLE1=Grom
TTITLE2=Ruke da mi vezu
TTITLE3=Nebo zlatom okite
TTITLE4=Haljina
TTITLE5=Ljubav cekati
TTITLE6=Tvoje ime mala
TTITLE7=Ljubav
TTITLE8=Muskarcina
TTITLE9=Nije vazno
TTITLE10=Oko moje
TTITLE11=Samo jos nocas
TTITLE12=Sva moja jutra
EXTD=
EXTT0=
EXTT1=
EXTT2=
EXTT3=
EXTT4=
EXTT5=
EXTT6=
EXTT7=
EXTT8=
EXTT9=
EXTT10=
EXTT11=
EXTT12=
PLAYORDER=
